<svg width="82" height="33" viewBox="0 0 82 33" fill="none" xmlns="http://www.w3.org/2000/svg">
<path d="M7.12793 28.585C7.09538 28.4873 7.0791 28.3327 7.0791 28.1211C7.0791 27.9095 7.09538 27.7793 7.12793 27.7305C7.14421 27.7142 7.1849 27.6898 7.25 27.6572C7.33138 27.6084 7.41276 27.5596 7.49414 27.5107C7.5918 27.4619 7.68132 27.4212 7.7627 27.3887C7.86035 27.3398 7.93359 27.3073 7.98242 27.291C8.69857 27.0957 9.40658 26.8841 10.1064 26.6562C10.8226 26.4284 11.5225 26.168 12.2061 25.875C12.8896 25.582 13.5488 25.2484 14.1836 24.874C14.8184 24.4834 15.4287 24.0277 16.0146 23.5068C17.4144 22.2373 18.4154 21.1468 19.0176 20.2354C19.6361 19.3076 19.9616 18.5264 19.9941 17.8916C20.0267 17.2568 19.8232 16.7523 19.3838 16.3779C18.9606 15.9873 18.4154 15.7025 17.748 15.5234C17.097 15.3281 16.3727 15.2223 15.5752 15.2061C14.7939 15.1898 14.0615 15.2305 13.3779 15.3281C12.7106 15.4258 12.141 15.5641 11.6689 15.7432C11.2132 15.9222 10.9772 16.1094 10.9609 16.3047L10.1064 24.7764C10.0902 24.9229 10.0088 25.0368 9.8623 25.1182C9.7321 25.1833 9.58561 25.2158 9.42285 25.2158C9.27637 25.2158 9.13802 25.1833 9.00781 25.1182C8.89388 25.0368 8.83691 24.9229 8.83691 24.7764V17.9648H7.12793C7.11165 17.9323 7.10352 17.8672 7.10352 17.7695C7.10352 17.6556 7.11165 17.5824 7.12793 17.5498C7.19303 17.4684 7.29883 17.3301 7.44531 17.1348C7.60807 16.9232 7.77897 16.7035 7.95801 16.4756C8.13704 16.2477 8.30794 16.0361 8.4707 15.8408C8.63346 15.6455 8.75553 15.5153 8.83691 15.4502C8.85319 15.2386 8.8776 14.8724 8.91016 14.3516C8.95898 13.8307 8.99967 13.2773 9.03223 12.6914C9.08105 12.1055 9.12174 11.5521 9.1543 11.0312C9.20312 10.4941 9.23568 10.1279 9.25195 9.93262C9.28451 9.49316 9.23568 9.18392 9.10547 9.00488C8.99154 8.80957 8.82878 8.71191 8.61719 8.71191C8.4056 8.69564 8.1696 8.7526 7.90918 8.88281C7.64876 8.99674 7.38835 9.14323 7.12793 9.32227C6.86751 9.5013 6.62337 9.68848 6.39551 9.88379C6.16764 10.0791 5.98861 10.2337 5.8584 10.3477C5.72819 10.4779 5.50033 10.7057 5.1748 11.0312C4.84928 11.3405 4.50749 11.6823 4.14941 12.0566C3.79134 12.4147 3.44954 12.7565 3.12402 13.082C2.7985 13.3913 2.57878 13.611 2.46484 13.7412H1.19531C1.04883 13.2855 1.13835 12.8053 1.46387 12.3008C1.80566 11.7799 2.31022 11.251 2.97754 10.7139C3.64486 10.1768 4.43424 9.63965 5.3457 9.10254C6.27344 8.56543 7.25 8.06087 8.27539 7.58887C9.30078 7.10059 10.3262 6.65299 11.3516 6.24609C12.3932 5.83919 13.3617 5.4974 14.2568 5.2207C15.1683 4.92773 15.9658 4.70801 16.6494 4.56152C17.333 4.41504 17.8294 4.36621 18.1387 4.41504C18.4316 4.48014 18.6188 4.6429 18.7002 4.90332C18.7816 5.16374 18.7979 5.45671 18.749 5.78223C18.7002 6.09147 18.6107 6.40072 18.4805 6.70996C18.3665 7.01921 18.2526 7.24707 18.1387 7.39355C17.6341 8.1097 17.1702 8.76074 16.7471 9.34668C16.3239 9.91634 15.8844 10.4616 15.4287 10.9824C14.9893 11.487 14.5091 11.9997 13.9883 12.5205C13.4837 13.0251 12.8978 13.5785 12.2305 14.1807C12.7839 14.2783 13.3128 14.2946 13.8174 14.2295C14.3382 14.1644 14.8428 14.0993 15.3311 14.0342C15.8356 13.9528 16.3483 13.9121 16.8691 13.9121C17.4062 13.8958 17.9759 13.9854 18.5781 14.1807C18.9362 14.2946 19.2536 14.4167 19.5303 14.5469C19.807 14.6771 20.043 14.8317 20.2383 15.0107C20.4499 15.1898 20.6208 15.4176 20.751 15.6943C20.8975 15.9548 21.0195 16.2884 21.1172 16.6953C21.3288 17.6719 21.2474 18.624 20.873 19.5518C20.4987 20.4795 19.929 21.3584 19.1641 22.1885C18.4154 23.0186 17.5365 23.7998 16.5273 24.5322C15.5182 25.2484 14.4928 25.8994 13.4512 26.4854C12.4095 27.0713 11.4004 27.5758 10.4238 27.999C9.46354 28.4222 8.64974 28.7559 7.98242 29C7.80339 29.0814 7.63249 29.0732 7.46973 28.9756C7.30697 28.8617 7.19303 28.7314 7.12793 28.585ZM10.9609 13.7412C11.0749 13.6436 11.2376 13.4889 11.4492 13.2773C11.6771 13.0495 11.9294 12.7972 12.2061 12.5205C12.499 12.2438 12.8001 11.959 13.1094 11.666C13.4186 11.3568 13.7035 11.0638 13.9639 10.7871C14.2406 10.4941 14.4847 10.2337 14.6963 10.0059C14.9242 9.77799 15.0869 9.6071 15.1846 9.49316C15.3473 9.3304 15.5426 9.0944 15.7705 8.78516C16.0146 8.45964 16.2507 8.14225 16.4785 7.83301C16.7064 7.50749 16.9017 7.22266 17.0645 6.97852C17.2272 6.73438 17.3086 6.58789 17.3086 6.53906V5.26953C16.8203 5.18815 16.2425 5.22884 15.5752 5.3916C14.9242 5.55436 14.2731 5.76595 13.6221 6.02637C12.971 6.27051 12.3607 6.53092 11.791 6.80762C11.2376 7.06803 10.8145 7.26335 10.5215 7.39355L10.9609 8.22363V13.7412ZM26.6104 28.585C26.5941 28.292 26.5697 27.8525 26.5371 27.2666C26.5208 26.6644 26.4964 25.9889 26.4639 25.2402C26.4476 24.4753 26.4232 23.6777 26.3906 22.8477C26.3581 22.0176 26.3255 21.2282 26.293 20.4795C26.2767 19.7308 26.2604 19.0635 26.2441 18.4775C26.2279 17.8753 26.2197 17.4277 26.2197 17.1348C26.2197 17.0371 26.2116 16.8743 26.1953 16.6465C26.1953 16.4023 26.1953 16.1501 26.1953 15.8896C26.1953 15.613 26.1953 15.3525 26.1953 15.1084C26.2116 14.8643 26.2197 14.6934 26.2197 14.5957C26.0244 14.6934 25.7884 14.8643 25.5117 15.1084C25.2513 15.3525 24.9665 15.6211 24.6572 15.9141C24.348 16.1908 24.0306 16.4512 23.7051 16.6953C23.3958 16.9232 23.1029 17.0697 22.8262 17.1348C22.4518 16.9069 22.2809 16.6302 22.3135 16.3047C22.346 15.9629 22.5251 15.6048 22.8506 15.2305C23.1924 14.8398 23.64 14.4411 24.1934 14.0342C24.763 13.6273 25.3815 13.2367 26.0488 12.8623C26.7324 12.488 27.4323 12.1462 28.1484 11.8369C28.8646 11.5277 29.54 11.2754 30.1748 11.0801C30.8258 10.8685 31.3955 10.7383 31.8838 10.6895C32.3883 10.6243 32.7627 10.6569 33.0068 10.7871C33.4626 11.2591 33.6823 11.8451 33.666 12.5449C33.6497 13.2448 33.4951 13.9935 33.2021 14.791C32.9092 15.5885 32.5267 16.4186 32.0547 17.2812C31.5827 18.1439 31.127 18.9821 30.6875 19.7959C30.248 20.5934 29.8737 21.3503 29.5645 22.0664C29.2552 22.7663 29.1087 23.3685 29.125 23.873C29.1413 24.3776 29.3773 24.752 29.833 24.9961C30.2887 25.2402 31.0618 25.2972 32.1523 25.167C32.7057 25.0368 33.2835 24.8333 33.8857 24.5566C34.488 24.2637 35.0739 23.9463 35.6436 23.6045C36.2132 23.2464 36.7422 22.8721 37.2305 22.4814C37.735 22.0908 38.1582 21.7246 38.5 21.3828C39.0697 21.5293 39.387 21.7409 39.4521 22.0176C39.5173 22.2943 39.4033 22.6035 39.1104 22.9453C38.8337 23.2871 38.4105 23.6452 37.8408 24.0195C37.2712 24.3939 36.6283 24.7601 35.9121 25.1182C35.196 25.46 34.4473 25.7692 33.666 26.0459C32.901 26.3226 32.1605 26.5342 31.4443 26.6807C30.7445 26.8271 30.1097 26.8923 29.54 26.876C28.9867 26.8597 28.5798 26.7214 28.3193 26.4609C28.3193 26.5586 28.3112 26.7295 28.2949 26.9736C28.2786 27.2178 28.2461 27.4782 28.1973 27.7549C28.1484 28.0153 28.0671 28.2676 27.9531 28.5117C27.8392 28.7396 27.6764 28.9023 27.4648 29C27.2858 29.0814 27.1149 29.0651 26.9521 28.9512C26.8057 28.8372 26.6917 28.7152 26.6104 28.585ZM27.9043 23.2139L32.3965 13.1797C32.2826 12.8053 32.0872 12.5449 31.8105 12.3984C31.5501 12.2357 31.249 12.1624 30.9072 12.1787C30.5654 12.1787 30.2155 12.252 29.8574 12.3984C29.4993 12.5449 29.1657 12.724 28.8564 12.9355C28.5635 13.1309 28.3193 13.3506 28.124 13.5947C27.9287 13.8226 27.8311 14.0342 27.8311 14.2295L27.9043 23.2139ZM54.0029 24.3369C53.9867 24.2555 53.9215 24.109 53.8076 23.8975C53.71 23.6859 53.6286 23.5475 53.5635 23.4824C53.3844 23.4173 53.0508 23.3115 52.5625 23.165C52.0905 23.0023 51.5859 22.8314 51.0488 22.6523C50.5117 22.457 49.999 22.278 49.5107 22.1152C49.0387 21.9525 48.7051 21.8385 48.5098 21.7734C48.4609 21.7572 48.3551 21.7083 48.1924 21.627C48.0296 21.5293 47.8506 21.4316 47.6553 21.334C47.46 21.2201 47.2809 21.1224 47.1182 21.041C46.9554 20.9596 46.8496 20.9189 46.8008 20.9189C46.4915 20.9189 46.1986 21.1061 45.9219 21.4805C45.6452 21.8548 45.3685 22.3187 45.0918 22.8721C44.8151 23.4255 44.5221 24.0195 44.2129 24.6543C43.9036 25.2728 43.5618 25.8343 43.1875 26.3389C42.8132 26.8434 42.3981 27.2422 41.9424 27.5352C41.5029 27.8118 41.0065 27.877 40.4531 27.7305V26.876C40.5671 26.7295 40.7461 26.5016 40.9902 26.1924C41.2507 25.8831 41.5273 25.5332 41.8203 25.1426C42.1296 24.752 42.4551 24.3451 42.7969 23.9219C43.1387 23.4824 43.4561 23.0674 43.749 22.6768C44.0583 22.2861 44.3268 21.9362 44.5547 21.627C44.7988 21.3177 44.9779 21.0817 45.0918 20.9189C45.3034 20.6423 45.3359 20.2598 45.1895 19.7715C45.0592 19.2669 44.8558 18.7298 44.5791 18.1602C44.3187 17.5905 44.0339 17.0208 43.7246 16.4512C43.4154 15.8815 43.1956 15.3932 43.0654 14.9863C42.9352 14.5794 42.9434 14.2865 43.0898 14.1074C43.2363 13.9284 43.6351 13.9447 44.2861 14.1562C44.514 14.8398 44.8314 15.5397 45.2383 16.2559C45.6452 16.972 46.166 17.5417 46.8008 17.9648C47.3216 17.623 47.8099 17.1592 48.2656 16.5732C48.7376 15.9873 49.1689 15.3281 49.5596 14.5957C49.9665 13.8633 50.3327 13.0902 50.6582 12.2764C51 11.4463 51.3011 10.6325 51.5615 9.83496C51.8382 9.02116 52.0742 8.25618 52.2695 7.54004C52.4648 6.82389 52.6276 6.2054 52.7578 5.68457C52.888 5.45671 53.0671 5.27767 53.2949 5.14746C53.5391 5.01725 53.7751 4.91146 54.0029 4.83008C54.1169 4.97656 54.1901 5.33464 54.2227 5.9043C54.2552 6.47396 54.2715 7.17383 54.2715 8.00391C54.2715 8.81771 54.2552 9.72917 54.2227 10.7383C54.2064 11.7311 54.1901 12.7402 54.1738 13.7656C54.1738 14.7747 54.182 15.7676 54.1982 16.7441C54.2145 17.7044 54.2552 18.5589 54.3203 19.3076C54.4017 20.04 54.5156 20.6341 54.6621 21.0898C54.8086 21.5456 55.012 21.7734 55.2725 21.7734H57.8359V23.2871H55.7119C55.4189 23.2871 55.305 23.4743 55.3701 23.8486C55.4352 24.2067 55.5817 24.6706 55.8096 25.2402C56.0537 25.8099 56.3304 26.4447 56.6396 27.1445C56.9652 27.8281 57.2337 28.4873 57.4453 29.1221C57.6732 29.7568 57.8034 30.3346 57.8359 30.8555C57.8685 31.3763 57.722 31.7425 57.3965 31.9541C57.3314 31.9867 57.1849 32.0029 56.957 32.0029C56.7454 32.0029 56.6071 31.9867 56.542 31.9541C56.4606 31.6611 56.2979 31.1566 56.0537 30.4404C55.8096 29.7243 55.5492 28.9593 55.2725 28.1455C55.012 27.3317 54.7598 26.5667 54.5156 25.8506C54.2715 25.1344 54.1006 24.6299 54.0029 24.3369ZM49.7793 20.5039C49.877 20.5527 50.056 20.6423 50.3164 20.7725C50.5931 20.8864 50.8861 21.0166 51.1953 21.1631C51.5208 21.2933 51.8301 21.4154 52.123 21.5293C52.416 21.6432 52.6276 21.7246 52.7578 21.7734C52.7904 21.7897 52.8555 21.7979 52.9531 21.7979C53.0508 21.7979 53.1159 21.7897 53.1484 21.7734C53.2135 21.1061 53.2135 20.2679 53.1484 19.2588C53.0833 18.2497 52.9938 17.2161 52.8799 16.1582C52.7822 15.1003 52.6764 14.0911 52.5625 13.1309C52.4486 12.1543 52.3672 11.373 52.3184 10.7871L47.6553 19.2588C47.7204 19.3076 47.8506 19.3971 48.0459 19.5273C48.2575 19.6413 48.4691 19.7715 48.6807 19.918C48.9085 20.0482 49.1201 20.1702 49.3154 20.2842C49.527 20.3981 49.6816 20.4714 49.7793 20.5039ZM60.7412 27.7305C60.2367 27.3561 59.8542 26.8353 59.5938 26.168C59.3496 25.5007 59.1787 24.7926 59.0811 24.0439C58.9834 23.2952 58.9427 22.571 58.959 21.8711C58.9753 21.1549 59.0078 20.5609 59.0566 20.0889C59.0729 19.9098 59.1136 19.5843 59.1787 19.1123C59.2601 18.624 59.3415 18.1113 59.4229 17.5742C59.5205 17.0208 59.61 16.5081 59.6914 16.0361C59.7891 15.5479 59.8623 15.2142 59.9111 15.0352C60.3343 13.2773 60.7982 11.8613 61.3027 10.7871C61.8236 9.71289 62.3444 8.89909 62.8652 8.3457C63.4023 7.77604 63.9313 7.43424 64.4521 7.32031C64.973 7.20638 65.4368 7.23893 65.8438 7.41797C66.2669 7.58073 66.6169 7.84928 66.8936 8.22363C67.1865 8.59798 67.3656 9.00488 67.4307 9.44434C67.512 9.86751 67.4632 10.2826 67.2842 10.6895C67.1051 11.0964 66.7633 11.4056 66.2588 11.6172C66.1774 11.6497 66.0716 11.6823 65.9414 11.7148C65.8275 11.7311 65.7135 11.7393 65.5996 11.7393C65.4857 11.7393 65.388 11.7311 65.3066 11.7148C65.2415 11.6823 65.209 11.6497 65.209 11.6172V9.07812C65.209 9.0293 65.1195 9.00488 64.9404 9.00488C64.7777 9.00488 64.6475 9.0293 64.5498 9.07812C64.0127 9.38737 63.5244 9.90007 63.085 10.6162C62.6455 11.3161 62.2549 12.0811 61.9131 12.9111C61.5876 13.7249 61.319 14.5225 61.1074 15.3037C60.9121 16.0687 60.79 16.679 60.7412 17.1348C60.7249 17.3138 60.7087 17.5905 60.6924 17.9648C60.6761 18.3392 60.6598 18.7705 60.6436 19.2588C60.6436 19.7308 60.6436 20.2272 60.6436 20.748C60.6436 21.2689 60.6436 21.7653 60.6436 22.2373C60.6598 22.7093 60.6761 23.1406 60.6924 23.5312C60.7087 23.9056 60.7249 24.1823 60.7412 24.3613C60.7412 24.638 60.8145 24.931 60.9609 25.2402C61.1074 25.5332 61.2865 25.818 61.498 26.0947C61.7096 26.3551 61.9375 26.5993 62.1816 26.8271C62.4258 27.0387 62.6536 27.1934 62.8652 27.291C63.4186 27.5677 64.0127 27.6328 64.6475 27.4863C65.2985 27.3398 65.9333 27.0469 66.5518 26.6074C67.1865 26.168 67.7887 25.6309 68.3584 24.9961C68.9281 24.3613 69.4163 23.7021 69.8232 23.0186C70.2464 22.335 70.5557 21.6595 70.751 20.9922C70.9626 20.3249 71.0195 19.7471 70.9219 19.2588C70.3197 19.1774 69.7174 19.1937 69.1152 19.3076C68.513 19.4053 67.9108 19.5273 67.3086 19.6738C66.7227 19.8203 66.1286 19.9505 65.5264 20.0645C64.9242 20.1621 64.3138 20.1702 63.6953 20.0889C63.6628 19.9912 63.6383 19.8773 63.6221 19.7471C63.6221 19.6169 63.6383 19.4948 63.6709 19.3809C63.7035 19.2507 63.7523 19.1367 63.8174 19.0391C63.8988 18.9414 64.0046 18.8682 64.1348 18.8193C64.7207 18.8193 65.3717 18.7054 66.0879 18.4775C66.804 18.2497 67.5283 18.0137 68.2607 17.7695C68.9932 17.5254 69.7012 17.3219 70.3848 17.1592C71.0684 16.9964 71.6624 16.9883 72.167 17.1348C72.2646 18.0462 72.1833 19.0472 71.9229 20.1377C71.6624 21.2282 71.2718 22.2861 70.751 23.3115C70.2301 24.3369 69.5954 25.2809 68.8467 26.1436C68.1143 27.0062 67.3086 27.6816 66.4297 28.1699C65.5508 28.6419 64.623 28.8698 63.6465 28.8535C62.6862 28.8372 61.7178 28.4629 60.7412 27.7305ZM74.291 28.585C74.1934 28.1943 74.2015 27.877 74.3154 27.6328C74.4456 27.3887 74.6084 27.2178 74.8037 27.1201C74.999 27.0062 75.2025 26.9655 75.4141 26.998C75.6419 27.0306 75.7965 27.1283 75.8779 27.291C75.9756 27.4538 75.9756 27.6816 75.8779 27.9746C75.7965 28.2513 75.5524 28.5931 75.1455 29C75.0804 29.0651 74.999 29.0814 74.9014 29.0488C74.8037 29.0326 74.7142 29 74.6328 28.9512C74.5514 28.8861 74.4782 28.821 74.4131 28.7559C74.348 28.6745 74.3073 28.6175 74.291 28.585ZM74.7305 22.2129C74.1608 21.3503 73.7946 20.3574 73.6318 19.2344C73.4854 18.0951 73.4854 16.8988 73.6318 15.6455C73.7783 14.3923 74.0469 13.1227 74.4375 11.8369C74.8444 10.5348 75.3083 9.29785 75.8291 8.12598C76.3499 6.93783 76.8952 5.85547 77.4648 4.87891C78.0508 3.88607 78.6123 3.0804 79.1494 2.46191C79.6865 1.82715 80.1585 1.41211 80.5654 1.2168C80.9886 1.00521 81.2979 1.08659 81.4932 1.46094C81.5257 1.49349 81.542 1.56673 81.542 1.68066C81.542 1.77832 81.5257 1.84342 81.4932 1.87598C80.5492 2.9502 79.6458 4.13835 78.7832 5.44043C77.9368 6.74251 77.2044 8.10156 76.5859 9.51758C75.9837 10.9336 75.5443 12.3984 75.2676 13.9121C74.9909 15.4095 74.9502 16.9069 75.1455 18.4043C75.1618 18.5345 75.2513 18.7949 75.4141 19.1855C75.5931 19.5762 75.7477 19.9993 75.8779 20.4551C76.0244 20.9108 76.0977 21.3503 76.0977 21.7734C76.0977 22.1803 75.9268 22.4733 75.585 22.6523C75.3734 22.7337 75.1943 22.7174 75.0479 22.6035C74.9176 22.4733 74.8118 22.3431 74.7305 22.2129Z" fill="url(#paint0_linear_63_15)"/>
<defs>
<linearGradient id="paint0_linear_63_15" x1="-20.6081" y1="10" x2="107.948" y2="19.0003" gradientUnits="userSpaceOnUse">
<stop stop-color="#2928FC"/>
<stop offset="0.49" stop-color="#A954F5" stop-opacity="0.64"/>
<stop offset="1" stop-color="#E9489B"/>
</linearGradient>
</defs>
</svg>
