<svg width="24" height="24" viewBox="0 0 24 24" fill="none" xmlns="http://www.w3.org/2000/svg">
<path d="M21 15V12.1345C21 10.6934 21 9.97291 20.6949 9.34918C20.3899 8.72546 19.8211 8.2831 18.6836 7.39837L15.6836 5.06505C13.9141 3.68874 13.0293 3.00058 12 3.00058C10.9707 3.00058 10.0859 3.68874 8.31636 5.06505L5.31636 7.39838C4.17886 8.28309 3.61011 8.72546 3.30505 9.34918C3 9.97291 3 10.6934 3 12.1345V15C3 17.8284 3 19.2426 3.87868 20.1213C4.75736 21 6.17157 21 9 21L9.25 21V16.25C9.25 14.7312 10.4812 13.5 12 13.5C13.5188 13.5 14.75 14.7312 14.75 16.25V21L15 21C17.8284 21 19.2426 21 20.1213 20.1213C21 19.2426 21 17.8284 21 15Z" fill="#FEFD00"/>
<path d="M5.31636 7.39838L5.62333 7.79305L5.62333 7.79305L5.31636 7.39838ZM8.31636 5.06505L8.00939 4.67037L8.00939 4.67037L8.31636 5.06505ZM15.6836 5.06505L15.3767 5.45972L15.3767 5.45972L15.6836 5.06505ZM18.6836 7.39837L18.9906 7.0037L18.9906 7.0037L18.6836 7.39837ZM9 21L9.00001 20.5H9V21ZM15 21V20.5L15 20.5L15 21ZM3.30505 9.34918L2.8559 9.12951L2.8559 9.12951L3.30505 9.34918ZM14.75 21H14.25C14.25 21.1326 14.3027 21.2598 14.3964 21.3536C14.4902 21.4473 14.6174 21.5 14.75 21.5L14.75 21ZM9.25 21L9.24999 21.5C9.3826 21.5 9.50978 21.4473 9.60355 21.3536C9.69732 21.2598 9.75 21.1326 9.75 21H9.25ZM20.5 12.1345V15H21.5V12.1345H20.5ZM3.5 15V12.1345H2.5V15H3.5ZM5.62333 7.79305L8.62333 5.45972L8.00939 4.67037L5.00939 7.0037L5.62333 7.79305ZM15.3767 5.45972L18.3767 7.79305L18.9906 7.0037L15.9906 4.67037L15.3767 5.45972ZM8.62333 5.45972C9.51769 4.76411 10.1542 4.2701 10.6938 3.94496C11.2219 3.62676 11.6099 3.50058 12 3.50058V2.50058C11.3608 2.50058 10.7917 2.71848 10.1777 3.08843C9.57522 3.45145 8.88458 3.98967 8.00939 4.67037L8.62333 5.45972ZM15.9906 4.67037C15.1154 3.98967 14.4248 3.45145 13.8223 3.08843C13.2083 2.71848 12.6392 2.50058 12 2.50058V3.50058C12.3901 3.50058 12.7781 3.62676 13.3062 3.94496C13.8458 4.2701 14.4823 4.76411 15.3767 5.45972L15.9906 4.67037ZM9 20.5C7.57165 20.5 6.55069 20.4989 5.77481 20.3946C5.01331 20.2922 4.56319 20.0987 4.23223 19.7678L3.52513 20.4749C4.07285 21.0226 4.76917 21.2684 5.64156 21.3857C6.49956 21.5011 7.59992 21.5 9 21.5V20.5ZM2.5 15C2.5 16.4001 2.49894 17.5004 2.61429 18.3584C2.73158 19.2308 2.9774 19.9271 3.52513 20.4749L4.23223 19.7678C3.90128 19.4368 3.70776 18.9867 3.60538 18.2252C3.50106 17.4493 3.5 16.4283 3.5 15H2.5ZM20.5 15C20.5 16.4283 20.4989 17.4493 20.3946 18.2252C20.2922 18.9867 20.0987 19.4368 19.7678 19.7678L20.4749 20.4749C21.0226 19.9271 21.2684 19.2308 21.3857 18.3584C21.5011 17.5004 21.5 16.4001 21.5 15H20.5ZM15 21.5C16.4001 21.5 17.5004 21.5011 18.3584 21.3857C19.2308 21.2684 19.9271 21.0226 20.4749 20.4749L19.7678 19.7678C19.4368 20.0987 18.9867 20.2922 18.2252 20.3946C17.4493 20.4989 16.4283 20.5 15 20.5V21.5ZM21.5 12.1345C21.5 10.7424 21.5119 9.88158 21.1441 9.12951L20.2458 9.56886C20.4881 10.0642 20.5 10.6445 20.5 12.1345H21.5ZM18.3767 7.79305C19.5528 8.70784 20.0035 9.07348 20.2458 9.56886L21.1441 9.12951C20.7763 8.37744 20.0894 7.85835 18.9906 7.0037L18.3767 7.79305ZM3.5 12.1345C3.5 10.6445 3.51193 10.0642 3.75421 9.56886L2.8559 9.12951C2.48807 9.88158 2.5 10.7424 2.5 12.1345H3.5ZM5.00939 7.0037C3.91055 7.85835 3.22372 8.37744 2.8559 9.12951L3.75421 9.56886C3.9965 9.07348 4.44717 8.70784 5.62333 7.79305L5.00939 7.0037ZM14.25 16.25V21H15.25V16.25H14.25ZM9.75 21V16.25H8.75V21H9.75ZM12 14C13.2426 14 14.25 15.0074 14.25 16.25H15.25C15.25 14.4551 13.7949 13 12 13V14ZM12 13C10.2051 13 8.75 14.4551 8.75 16.25H9.75C9.75 15.0074 10.7574 14 12 14V13ZM9.25001 20.5L9.00001 20.5L8.99999 21.5L9.24999 21.5L9.25001 20.5ZM14.75 21.5L15 21.5L15 20.5L14.75 20.5L14.75 21.5Z" fill="black"/>
</svg>
