<svg width="90" height="76" viewBox="0 0 90 76" fill="none" xmlns="http://www.w3.org/2000/svg">
<mask id="path-1-inside-1_14_67" fill="white">
<path fill-rule="evenodd" clip-rule="evenodd" d="M70.964 47.4584C70.5337 48.8 70.9831 50.2908 72.1511 51.0786L86.3214 60.6366C90.0867 63.1763 91.0802 68.2875 88.5405 72.0527C86.0008 75.818 80.8896 76.8115 77.1243 74.2718L62.7384 64.5684C61.5923 63.7953 60.0741 63.9162 58.9932 64.7783C52.7816 69.7326 44.9101 72.6938 36.3469 72.6938C16.2731 72.6938 0 56.4208 0 36.3469C0 16.2731 16.2731 0 36.3469 0C56.4208 0 72.6938 16.2731 72.6938 36.3469C72.6938 40.2223 72.0873 43.9561 70.964 47.4584ZM36.5 53C45.6127 53 53 45.6127 53 36.5C53 27.3873 45.6127 20 36.5 20C27.3873 20 20 27.3873 20 36.5C20 45.6127 27.3873 53 36.5 53Z"/>
</mask>
<path fill-rule="evenodd" clip-rule="evenodd" d="M70.964 47.4584C70.5337 48.8 70.9831 50.2908 72.1511 51.0786L86.3214 60.6366C90.0867 63.1763 91.0802 68.2875 88.5405 72.0527C86.0008 75.818 80.8896 76.8115 77.1243 74.2718L62.7384 64.5684C61.5923 63.7953 60.0741 63.9162 58.9932 64.7783C52.7816 69.7326 44.9101 72.6938 36.3469 72.6938C16.2731 72.6938 0 56.4208 0 36.3469C0 16.2731 16.2731 0 36.3469 0C56.4208 0 72.6938 16.2731 72.6938 36.3469C72.6938 40.2223 72.0873 43.9561 70.964 47.4584ZM36.5 53C45.6127 53 53 45.6127 53 36.5C53 27.3873 45.6127 20 36.5 20C27.3873 20 20 27.3873 20 36.5C20 45.6127 27.3873 53 36.5 53Z" fill="#FFF623"/>
<path d="M72.1511 51.0786L74.3879 47.7625L74.3879 47.7625L72.1511 51.0786ZM70.964 47.4584L67.1551 46.2368L67.1551 46.2368L70.964 47.4584ZM86.3214 60.6366L84.0846 63.9527L84.0846 63.9527L86.3214 60.6366ZM88.5405 72.0527L85.2243 69.816L85.2243 69.816L88.5405 72.0527ZM77.1243 74.2718L79.3611 70.9556L79.3611 70.9556L77.1243 74.2718ZM62.7384 64.5684L64.9752 61.2523L64.9752 61.2522L62.7384 64.5684ZM58.9932 64.7783L61.4874 67.9054L61.4874 67.9054L58.9932 64.7783ZM74.3879 47.7625C74.8232 48.0561 74.837 48.4802 74.7729 48.68L67.1551 46.2368C66.2305 49.1199 67.143 52.5255 69.9144 54.3948L74.3879 47.7625ZM88.5582 57.3204L74.3879 47.7625L69.9144 54.3948L84.0846 63.9527L88.5582 57.3204ZM91.8566 74.2895C95.6316 68.6928 94.1549 61.0955 88.5582 57.3204L84.0846 63.9527C86.0184 65.2571 86.5287 67.8821 85.2243 69.816L91.8566 74.2895ZM74.8875 77.5879C80.4843 81.363 88.0816 79.8862 91.8566 74.2895L85.2243 69.816C83.9199 71.7498 81.2949 72.26 79.3611 70.9556L74.8875 77.5879ZM60.5017 67.8846L74.8875 77.5879L79.3611 70.9556L64.9752 61.2523L60.5017 67.8846ZM61.4874 67.9054C61.3219 68.0375 60.9277 68.1719 60.5017 67.8846L64.9752 61.2522C62.2568 59.4187 58.8263 59.795 56.4991 61.6511L61.4874 67.9054ZM36.3469 76.6938C45.8485 76.6938 54.5928 73.4045 61.4874 67.9054L56.4991 61.6511C50.9703 66.0607 43.9716 68.6938 36.3469 68.6938V76.6938ZM-4 36.3469C-4 58.6299 14.0639 76.6938 36.3469 76.6938V68.6938C18.4822 68.6938 4 54.2116 4 36.3469H-4ZM36.3469 -4C14.0639 -4 -4 14.0639 -4 36.3469H4C4 18.4822 18.4822 4 36.3469 4V-4ZM76.6938 36.3469C76.6938 14.0639 58.6299 -4 36.3469 -4V4C54.2116 4 68.6938 18.4822 68.6938 36.3469H76.6938ZM74.7729 48.6801C76.0213 44.7876 76.6938 40.6419 76.6938 36.3469H68.6938C68.6938 39.8027 68.1533 43.1246 67.1551 46.2368L74.7729 48.6801ZM49 36.5C49 43.4036 43.4036 49 36.5 49V57C47.8218 57 57 47.8218 57 36.5H49ZM36.5 24C43.4036 24 49 29.5964 49 36.5H57C57 25.1782 47.8218 16 36.5 16V24ZM24 36.5C24 29.5964 29.5964 24 36.5 24V16C25.1782 16 16 25.1782 16 36.5H24ZM36.5 49C29.5964 49 24 43.4036 24 36.5H16C16 47.8218 25.1782 57 36.5 57V49Z" fill="black" mask="url(#path-1-inside-1_14_67)"/>
</svg>
