<svg width="97" height="97" viewBox="0 0 97 97" fill="none" xmlns="http://www.w3.org/2000/svg">
<circle cx="48.5" cy="48.5" r="47.5" fill="#FEFD00" stroke="black" stroke-width="2"/>
<path fill-rule="evenodd" clip-rule="evenodd" d="M25.4999 43.5C25.4999 34.1112 33.111 26.5 42.4999 26.5C51.8887 26.5 59.4999 34.1112 59.4999 43.5C59.4999 52.8889 51.8887 60.5 42.4999 60.5C33.111 60.5 25.4999 52.8889 25.4999 43.5ZM42.4999 20.5C29.7973 20.5 19.4999 30.7975 19.4999 43.5C19.4999 56.2026 29.7973 66.5 42.4999 66.5C47.4066 66.5 51.9544 64.9636 55.6885 62.3455L69.6714 76.3284C71.2335 77.8905 73.7662 77.8905 75.3283 76.3284C76.8904 74.7664 76.8904 72.2337 75.3283 70.6716L61.3453 56.6886C63.9634 52.9545 65.4999 48.4067 65.4999 43.5C65.4999 30.7975 55.2024 20.5 42.4999 20.5Z" fill="black"/>
</svg>
