<svg width="45" height="45" viewBox="0 0 45 45" fill="none" xmlns="http://www.w3.org/2000/svg">
<mask id="path-1-inside-1_1_10" fill="white">
<path fill-rule="evenodd" clip-rule="evenodd" d="M35.7027 29.1311C37.4459 26.2379 38.4486 22.8482 38.4486 19.2243C38.4486 8.60701 29.8416 0 19.2243 0C8.60701 0 0 8.60701 0 19.2243C0 29.8416 8.60701 38.4486 19.2243 38.4486C22.4464 38.4486 25.4833 37.6559 28.1507 36.255L35.376 43.4803C37.4023 45.5066 40.6876 45.5066 42.7139 43.4803C44.7402 41.4539 44.7402 38.1686 42.7139 36.1423L35.7027 29.1311Z"/>
</mask>
<path fill-rule="evenodd" clip-rule="evenodd" d="M35.7027 29.1311C37.4459 26.2379 38.4486 22.8482 38.4486 19.2243C38.4486 8.60701 29.8416 0 19.2243 0C8.60701 0 0 8.60701 0 19.2243C0 29.8416 8.60701 38.4486 19.2243 38.4486C22.4464 38.4486 25.4833 37.6559 28.1507 36.255L35.376 43.4803C37.4023 45.5066 40.6876 45.5066 42.7139 43.4803C44.7402 41.4539 44.7402 38.1686 42.7139 36.1423L35.7027 29.1311Z" fill="#FEFD00"/>
<path d="M35.7027 29.1311L33.9896 28.099L33.1823 29.4391L34.2885 30.5454L35.7027 29.1311ZM28.1507 36.255L29.5649 34.8408L28.524 33.7998L27.2207 34.4843L28.1507 36.255ZM35.376 43.4803L36.7902 42.066L36.7902 42.066L35.376 43.4803ZM42.7139 36.1423L41.2997 37.5565L41.2997 37.5565L42.7139 36.1423ZM36.4486 19.2243C36.4486 22.4744 35.5503 25.5086 33.9896 28.099L37.4158 30.1633C39.3414 26.9673 40.4486 23.222 40.4486 19.2243H36.4486ZM19.2243 2C28.737 2 36.4486 9.71158 36.4486 19.2243H40.4486C40.4486 7.50244 30.9462 -2 19.2243 -2V2ZM2 19.2243C2 9.71158 9.71158 2 19.2243 2V-2C7.50244 -2 -2 7.50244 -2 19.2243H2ZM19.2243 36.4486C9.71158 36.4486 2 28.737 2 19.2243H-2C-2 30.9462 7.50244 40.4486 19.2243 40.4486V36.4486ZM27.2207 34.4843C24.8332 35.7383 22.1147 36.4486 19.2243 36.4486V40.4486C22.778 40.4486 26.1333 39.5736 29.0806 38.0256L27.2207 34.4843ZM36.7902 42.066L29.5649 34.8408L26.7365 37.6692L33.9617 44.8945L36.7902 42.066ZM41.2997 42.066C40.0544 43.3113 38.0354 43.3113 36.7902 42.066L33.9617 44.8945C36.7691 47.7018 41.3208 47.7018 44.1281 44.8945L41.2997 42.066ZM41.2997 37.5565C42.545 38.8018 42.545 40.8208 41.2997 42.066L44.1281 44.8945C46.9355 42.0871 46.9355 37.5355 44.1281 34.7281L41.2997 37.5565ZM34.2885 30.5454L41.2997 37.5565L44.1281 34.7281L37.117 27.7169L34.2885 30.5454Z" fill="black" mask="url(#path-1-inside-1_1_10)"/>
</svg>
